<svg width="34" height="34" viewBox="0 0 34 34" fill="none" xmlns="http://www.w3.org/2000/svg">
<path d="M9.38228 2.03667C9.84701 2.84676 11.6977 8.11704 11.9994 8.97982C12.0281 9.0617 12.0613 9.13789 12.0867 9.22085C12.1456 9.41374 12.2208 9.8236 12.0411 10.3604C11.7879 11.1171 10.3952 12.8827 10.142 13.5133C9.97806 13.9214 10.0263 14.2768 10.0808 14.4766C10.1127 14.5939 10.1586 14.7058 10.1945 14.822C10.3922 15.461 11.1269 17.7122 12.0411 19C13.2357 20.6827 14.2197 21.4564 16 22.5C17.3233 23.2757 19.0048 23.981 19.6379 23.981C20.1426 23.981 20.5668 23.7405 20.7181 23.643C20.7585 23.617 20.7966 23.5904 20.837 23.5645C21.1511 23.3637 22.6191 22.4263 23.183 22.0892C23.6154 21.8308 23.6895 21.7109 24.4491 21.837C25.2088 21.9631 30.5265 24.1071 31.7926 24.6116C32.2807 24.806 32.5846 25.0193 32.8055 25.4944C33.0341 25.986 33.0938 26.4223 32.8055 26.8817C32.1725 27.8906 30.3999 30.9174 29.387 31.9264C28.7926 32.5184 28.3063 32.7445 27.4878 32.9353C26.5479 33.1544 25.0705 32.7519 24.8554 32.6907C24.8371 32.6855 24.8227 32.681 24.8046 32.675C24.4648 32.5625 20.658 31.2929 18.3717 30.1607C16.0999 29.0356 14.8209 28.1429 12.9274 26.6295C10.7459 24.8858 9.65575 23.9801 7.86293 21.837C6.35284 20.0319 5.49961 18.8893 4.31779 16.7923C3.26318 14.9211 2.09701 11.8601 1.93198 11.4221C1.91822 11.3856 1.90457 11.3521 1.88926 11.3162C1.75556 11.0027 1.07972 9.3668 1.02587 8.21639C0.984167 7.32538 0.95092 6.77622 1.2791 5.94629C1.56561 5.22173 1.8658 4.85742 2.41861 4.30677C3.05167 3.67619 6.97665 1.27997 7.22987 1.15385C7.67212 0.933591 8.03958 0.964421 8.496 1.15385C8.94782 1.34138 9.13943 1.61334 9.38228 2.03667Z" fill="white" stroke="white" stroke-linecap="round"/>
</svg>
